<?xml version="1.0" encoding="utf-8"?>
<!-- Generator: Adobe Illustrator 24.1.0, SVG Export Plug-In . SVG Version: 6.00 Build 0)  -->
<svg version="1.1" id="Layer_1" xmlns="http://www.w3.org/2000/svg" xmlns:xlink="http://www.w3.org/1999/xlink" x="0px" y="0px"
	 viewBox="0 0 54 94" style="enable-background:new 0 0 54 94;" xml:space="preserve">
<style type="text/css">
	.st0{fill:#FF8B92;}
</style>
<path class="st0" d="M5.61,93.43c0.73,0.74,1.61,0.74,2.35,0l45.27-45.27c0.37-0.37,0.53-0.73,0.53-1.17s-0.16-0.81-0.53-1.17
	L7.96,0.55C7.6,0.18,7.24,0.02,6.79,0.02S5.99,0.18,5.62,0.55L0.76,5.41C0.4,5.78,0.24,6.14,0.24,6.58S0.4,7.39,0.76,7.75
	l39.24,39.24L0.76,86.23C0.4,86.6,0.24,86.96,0.24,87.4s0.16,0.81,0.53,1.17L5.61,93.43z"/>
</svg>
