<?xml version="1.0" encoding="utf-8"?>
<!-- Generator: Adobe Illustrator 24.1.0, SVG Export Plug-In . SVG Version: 6.00 Build 0)  -->
<svg version="1.1" id="Layer_1" xmlns="http://www.w3.org/2000/svg" xmlns:xlink="http://www.w3.org/1999/xlink" x="0px" y="0px"
	 viewBox="0 0 450 450" style="enable-background:new 0 0 450 450;" xml:space="preserve">
<style type="text/css">
	.st0{fill:#FF8B92;}
</style>
<path class="st0" d="M225.18,44.66c48.1,0,93.3,18.7,127.3,52.7s52.7,79.2,52.7,127.3s-18.7,93.3-52.7,127.3s-79.2,52.7-127.3,52.7
	s-93.3-18.7-127.3-52.7s-52.7-79.2-52.7-127.3s18.7-93.3,52.7-127.3S177.08,44.66,225.18,44.66 M225.18,16.66
	c-114.9,0-208,93.1-208,208s93.1,208,208,208s208-93.1,208-208S340.08,16.66,225.18,16.66z"/>
<g>
	<path class="st0" d="M163.93,185.31c0-7.82,2.51-15.75,7.53-23.77c5.02-8.03,12.35-14.67,21.98-19.94
		c9.63-5.27,20.87-7.9,33.71-7.9c11.94,0,22.48,2.2,31.61,6.61c9.14,4.41,16.2,10.39,21.18,17.97c4.98,7.58,7.47,15.81,7.47,24.7
		c0,7-1.42,13.13-4.26,18.4c-2.84,5.27-6.22,9.82-10.13,13.65c-3.91,3.83-10.93,10.27-21.06,19.33c-2.8,2.55-5.04,4.8-6.73,6.73
		c-1.69,1.94-2.94,3.7-3.77,5.31c-0.82,1.61-1.46,3.21-1.91,4.82c-0.45,1.61-1.13,4.43-2.04,8.46c-1.57,8.56-6.46,12.84-14.7,12.84
		c-4.28,0-7.88-1.4-10.81-4.2c-2.92-2.8-4.38-6.96-4.38-12.47c0-6.92,1.07-12.9,3.21-17.97c2.14-5.06,4.98-9.51,8.52-13.34
		c3.54-3.83,8.31-8.38,14.33-13.65c5.27-4.61,9.08-8.09,11.42-10.43c2.35-2.35,4.32-4.96,5.93-7.84c1.61-2.88,2.41-6.01,2.41-9.39
		c0-6.59-2.45-12.14-7.35-16.67c-4.9-4.53-11.22-6.79-18.96-6.79c-9.06,0-15.73,2.28-20.01,6.85c-4.28,4.57-7.9,11.3-10.87,20.19
		c-2.8,9.3-8.11,13.95-15.93,13.95c-4.61,0-8.5-1.62-11.67-4.88C165.52,192.62,163.93,189.1,163.93,185.31z M224.19,320.66
		c-5.02,0-9.41-1.63-13.15-4.88c-3.75-3.25-5.62-7.8-5.62-13.65c0-5.19,1.81-9.55,5.43-13.09c3.62-3.54,8.07-5.31,13.34-5.31
		c5.19,0,9.55,1.77,13.09,5.31c3.54,3.54,5.31,7.9,5.31,13.09c0,5.76-1.85,10.29-5.56,13.58
		C233.33,319.01,229.05,320.66,224.19,320.66z"/>
</g>
<g>
</g>
<g>
</g>
<g>
</g>
<g>
</g>
<g>
</g>
<g>
</g>
</svg>
