<?xml version="1.0" encoding="utf-8"?>
<!-- Generator: Adobe Illustrator 24.1.2, SVG Export Plug-In . SVG Version: 6.00 Build 0)  -->
<svg version="1.1" id="Layer_1" xmlns="http://www.w3.org/2000/svg" xmlns:xlink="http://www.w3.org/1999/xlink" x="0px" y="0px"
	 viewBox="0 0 450 450" style="enable-background:new 0 0 450 450;" xml:space="preserve">
<style type="text/css">
	.st0{fill:#FF8B92;}
</style>
<path class="st0" d="M372,348.5L247.9,224.4l123.3-123.3c6.2-6.2,6.2-16.4,0-22.6s-16.4-6.2-22.6,0L225.3,201.8L101.7,78.2
	c-6.2-6.2-16.4-6.2-22.6,0c-6.2,6.2-6.2,16.4,0,22.6l123.6,123.6L78.8,348.3c-6.2,6.2-6.2,16.4,0,22.6c3.1,3.1,7.2,4.7,11.3,4.7
	c4.1,0,8.2-1.6,11.3-4.7L225.3,247l124.1,124.1c3.1,3.1,7.2,4.7,11.3,4.7c4.1,0,8.2-1.6,11.3-4.7C378.2,364.9,378.2,354.7,372,348.5
	z"/>
</svg>
