<?xml version="1.0" encoding="utf-8"?>
<!-- Generator: Adobe Illustrator 24.1.0, SVG Export Plug-In . SVG Version: 6.00 Build 0)  -->
<svg version="1.1" id="Layer_1" xmlns="http://www.w3.org/2000/svg" xmlns:xlink="http://www.w3.org/1999/xlink" x="0px" y="0px"
	 viewBox="0 0 450 450" style="enable-background:new 0 0 450 450;" xml:space="preserve">
<style type="text/css">
	.st0{fill:#FF8B92;}
</style>
<path class="st0" d="M401.18,385.66v-280c0-25.4-20.6-46-46-46c-7.7,0-14,6.3-14,14s6.3,14,14,14c9.9,0,18,8.1,18,18v280
	c0,9.9-8.1,18-18,18h-260c-9.9,0-18-8.1-18-18v-280c0-9.9,8.1-18,18-18c7.7,0,14-6.3,14-14s-6.3-14-14-14c-25.4,0-46,20.6-46,46v280
	c0,25.4,20.6,46,46,46h260C380.58,431.66,401.18,411.06,401.18,385.66z"/>
<path class="st0" d="M146.98,192.66c-5.4-5.4-14.3-5.4-19.8,0l-0.1,0.1c-2.5,2.7-3.9,6.2-3.9,9.8c0,3.8,1.4,7.3,4.1,9.9l82.4,82.6
	c4.3,4.3,9.3,6.5,14.7,6.5c5.3,0,10.3-2.3,14.5-6.5l84.4-84.6c2.6-2.6,4.1-6.1,4.1-9.9c0-3.7-1.4-7.3-4.1-9.9
	c-5.5-5.5-14.3-5.5-19.8,0l-64.2,65.2V31.66c0-7.7-6.3-14-14-14c-7.7,0-14,6.3-14,14v224.6L146.98,192.66z"/>
<g>
</g>
<g>
</g>
<g>
</g>
<g>
</g>
<g>
</g>
<g>
</g>
</svg>
