<?xml version="1.0" encoding="utf-8"?>
<!-- Generator: Adobe Illustrator 24.1.0, SVG Export Plug-In . SVG Version: 6.00 Build 0)  -->
<svg version="1.1" id="Layer_1" xmlns="http://www.w3.org/2000/svg" xmlns:xlink="http://www.w3.org/1999/xlink" x="0px" y="0px"
	 viewBox="0 0 450 450" style="enable-background:new 0 0 450 450;" xml:space="preserve">
<style type="text/css">
	.st0{fill:#FF8B92;}
</style>
<path class="st0" d="M315.33,209.44h-74.5v-74.5c0-8.8-7.2-16-16-16s-16,7.2-16,16v74.5h-74.5c-8.8,0-16,6-16,16s7.5,16,16,16h74.5
	v74.5c0,9.5,7,16,16,16s16-7.2,16-16v-74.5h74.5c8.8,0,16-7.2,16-16S324.13,209.44,315.33,209.44z"/>
<path class="st0" d="M224.83,45.44c48.1,0,93.3,18.7,127.3,52.7s52.7,79.2,52.7,127.3s-18.7,93.3-52.7,127.3s-79.2,52.7-127.3,52.7
	s-93.3-18.7-127.3-52.7s-52.7-79.2-52.7-127.3s18.7-93.3,52.7-127.3S176.73,45.44,224.83,45.44 M224.83,17.44
	c-114.9,0-208,93.1-208,208s93.1,208,208,208s208-93.1,208-208S339.73,17.44,224.83,17.44z"/>
<g>
</g>
<g>
</g>
<g>
</g>
<g>
</g>
<g>
</g>
<g>
</g>
</svg>
